<svg width="32" height="32" viewBox="0 0 32 32" fill="none" xmlns="http://www.w3.org/2000/svg">
    <circle cx="16" cy="16" r="16" fill="#260082"/>
    <path d="M20.7368 13.3333H20.2632V11.5C20.2632 9.01467 18.3545 7 16 7C13.6455 7 11.7368 9.01467 11.7368 11.5V13.3333H11.2632C10.5653 13.3333 10 13.93 10 14.6667V21.6667C10 22.4033 10.5653 23 11.2632 23H20.7368C21.4347 23 22 22.4033 22 21.6667V14.6667C22 13.93 21.4347 13.3333 20.7368 13.3333ZM16 19.3333C15.3021 19.3333 14.7368 18.7367 14.7368 18C14.7368 17.2633 15.3021 16.6667 16 16.6667C16.6979 16.6667 17.2632 17.2633 17.2632 18C17.2632 18.7367 16.6979 19.3333 16 19.3333ZM18.6842 13C18.6842 13.184 18.5427 13.3333 18.3684 13.3333H13.6316C13.4573 13.3333 13.3158 13.184 13.3158 13V11.5C13.3158 9.93533 14.5177 8.66667 16 8.66667C17.4823 8.66667 18.6842 9.93533 18.6842 11.5V13Z" fill="white"/>
</svg>
