<svg width="32" height="32" viewBox="0 0 32 32" fill="none" xmlns="http://www.w3.org/2000/svg">
<circle cx="16" cy="16" r="16" fill="#260082"/>
<g clip-path="url(#clip0)">
<path d="M13.0834 15.0002C13.4054 15.0002 13.6667 14.7389 13.6667 14.4169C13.6667 14.0949 13.4054 13.8335 13.0834 13.8335H10.7501C10.4281 13.8335 10.1667 14.0949 10.1667 14.4169C10.1667 14.7389 10.4281 15.0002 10.7501 15.0002H10.8959C10.9764 14.9996 11.0412 15.0644 11.0417 15.1449C11.0417 15.1455 11.0417 15.1455 11.0417 15.146V17.4794C11.0417 17.5599 10.9764 17.6252 10.8959 17.6252H10.7501C10.4281 17.6252 10.1667 17.8865 10.1667 18.2085C10.1667 18.5305 10.4281 18.7919 10.7501 18.7919H13.0834C13.4054 18.7919 13.6667 18.5305 13.6667 18.2085C13.6667 17.8865 13.4054 17.6252 13.0834 17.6252H12.9376C12.8571 17.6252 12.7917 17.5599 12.7917 17.4794V15.146C12.7912 15.0655 12.8559 15.0008 12.9364 15.0002C12.937 15.0002 12.937 15.0002 12.9376 15.0002H13.0834ZM17.1667 15.0002C17.4887 15.0002 17.7501 14.7389 17.7501 14.4169C17.7501 14.0949 17.4887 13.8335 17.1667 13.8335H14.8334C14.5114 13.8335 14.2501 14.0949 14.2501 14.4169C14.2501 14.7389 14.5114 15.0002 14.8334 15.0002H14.9792C15.0597 14.9996 15.1245 15.0644 15.1251 15.1449C15.1251 15.1455 15.1251 15.1455 15.1251 15.146V17.4794C15.1251 17.5599 15.0597 17.6252 14.9792 17.6252H14.8334C14.5114 17.6252 14.2501 17.8865 14.2501 18.2085C14.2501 18.5305 14.5114 18.7919 14.8334 18.7919H17.1667C17.4887 18.7919 17.7501 18.5305 17.7501 18.2085C17.7501 17.8865 17.4887 17.6252 17.1667 17.6252H17.0209C16.9404 17.6252 16.8751 17.5599 16.8751 17.4794V15.146C16.8745 15.0655 16.9392 15.0008 17.0197 15.0002C17.0203 15.0002 17.0203 15.0002 17.0209 15.0002H17.1667ZM21.5417 15.0002C21.8637 15.0002 22.1251 14.7389 22.1251 14.4169C22.1251 14.0949 21.8637 13.8335 21.5417 13.8335H19.2084C18.8864 13.8335 18.6251 14.0949 18.6251 14.4169C18.6251 14.7389 18.8864 15.0002 19.2084 15.0002H19.3542C19.4347 14.9996 19.4995 15.0644 19.5001 15.1449C19.5001 15.1455 19.5001 15.1455 19.5001 15.146V17.4794C19.5001 17.5599 19.4347 17.6252 19.3542 17.6252H19.2084C18.8864 17.6252 18.6251 17.8865 18.6251 18.2085C18.6251 18.5305 18.8864 18.7919 19.2084 18.7919H21.5417C21.8637 18.7919 22.1251 18.5305 22.1251 18.2085C22.1251 17.8865 21.8637 17.6252 21.5417 17.6252H21.3959C21.3154 17.6252 21.2501 17.5599 21.2501 17.4794V15.146C21.2495 15.0655 21.3142 15.0008 21.3947 15.0002C21.3953 15.0002 21.3953 15.0002 21.3959 15.0002H21.5417ZM10.431 12.9585H21.631C21.8614 12.9632 22.0732 12.832 22.1712 12.6237C22.268 12.3985 22.1933 12.1366 21.9927 11.9966L16.6633 8.11687C16.4551 7.96929 16.178 7.96345 15.9633 8.1017L10.0909 11.9815C9.88032 12.1139 9.79457 12.3775 9.88557 12.6085C9.98007 12.825 10.1953 12.9626 10.431 12.9585ZM22.9511 21.547L21.7844 19.797C21.7302 19.7159 21.6392 19.6669 21.5417 19.6669H10.4584C10.361 19.6669 10.27 19.7159 10.2157 19.797L9.04907 21.547C8.95982 21.6811 8.99599 21.862 9.13015 21.9512C9.17799 21.9833 9.23457 22.0002 9.29174 22.0002H22.7084C22.8694 22.0002 23.0001 21.8695 23.0001 21.7085C23.0001 21.6508 22.9832 21.5948 22.9511 21.547Z" fill="white"/>
</g>
<defs>
<clipPath id="clip0">
<rect x="9" y="8" width="14" height="14" fill="white"/>
</clipPath>
</defs>
</svg>
