<svg width="32" height="32" viewBox="0 0 32 32" fill="none" xmlns="http://www.w3.org/2000/svg">
<circle cx="16" cy="16" r="16" fill="#260082"/>
<path d="M23.9062 17.4792C23.7057 17.0968 23.2484 16.9583 22.8857 17.1696C22.885 17.1696 22.885 17.1704 22.8842 17.1704L21.7278 17.8465C21.6129 17.9146 21.4733 17.9146 21.3584 17.8465L19.9496 16.986C19.8332 16.9155 19.7619 16.7849 19.7619 16.6432V14.3568C19.7619 14.2151 19.8332 14.0845 19.9496 14.014L21.3584 13.1567C21.4733 13.0886 21.6129 13.0886 21.7278 13.1567L22.8842 13.8328C23.2469 14.0449 23.7042 13.9072 23.9055 13.5248C24.1067 13.1424 23.9761 12.6603 23.6134 12.4481L23.3498 12.2945C23.2597 12.2407 23.2282 12.1196 23.2792 12.0246C23.2957 11.9937 23.3205 11.9676 23.3498 11.9502L23.539 11.8346C23.8995 11.6185 24.0256 11.1355 23.8206 10.7548C23.6156 10.374 23.1576 10.2418 22.7964 10.4579C22.7934 10.4595 22.7904 10.461 22.7874 10.4634L22.5981 10.5782C22.508 10.6328 22.3939 10.6004 22.3413 10.5062C22.324 10.4753 22.3158 10.4405 22.3165 10.404L22.3218 10.0874C22.3286 9.65038 21.9989 9.29017 21.5844 9.28225C21.1736 9.28463 20.8365 9.62742 20.82 10.0605L20.7974 11.4538C20.7952 11.5923 20.7238 11.7198 20.6097 11.7895L19.219 12.6302C19.0988 12.703 18.9509 12.7007 18.833 12.6239L16.9354 11.3833C16.8243 11.3105 16.7567 11.1815 16.7582 11.0437V9.44217C16.7582 9.30363 16.828 9.17458 16.9407 9.10333L18.0738 8.38608C18.423 8.15017 18.5251 7.66092 18.3014 7.29279C18.0866 6.93971 17.6481 6.82412 17.3011 7.02917L17.0428 7.19225C16.9542 7.24846 16.8386 7.21838 16.7852 7.12496C16.7672 7.09408 16.7582 7.05846 16.7582 7.02204V6.79167C16.7582 6.35467 16.4218 6 16.0073 6C15.5928 6 15.2564 6.35467 15.2564 6.79167V7.02204C15.2564 7.13129 15.1723 7.21996 15.0686 7.21996C15.0348 7.21996 15.0011 7.21046 14.9718 7.19146L14.7134 7.02917C14.3515 6.81542 13.8942 6.95079 13.6907 7.33158C13.4962 7.69733 13.6058 8.15967 13.9407 8.38608L15.0739 9.10333C15.1865 9.17458 15.2564 9.30363 15.2564 9.44217V11.0437C15.2564 11.1807 15.1895 11.3081 15.0791 11.3802L13.1808 12.6239C13.0629 12.7007 12.915 12.703 12.7948 12.6302L11.4071 11.7855C11.293 11.7158 11.2217 11.5884 11.2194 11.4498L11.1969 10.0565C11.1901 9.6195 10.8477 9.27117 10.4332 9.27829C10.0187 9.28542 9.68827 9.64642 9.69503 10.0834L9.70029 10.4001C9.70179 10.5093 9.61919 10.5996 9.51556 10.6004C9.48102 10.6012 9.44798 10.5925 9.41869 10.5743L9.22946 10.4595C8.87202 10.2386 8.41171 10.3645 8.2022 10.7421C7.99269 11.1189 8.11209 11.6042 8.47028 11.8251C8.47253 11.8275 8.47553 11.829 8.47854 11.8306L8.66777 11.9462C8.75788 12 8.78942 12.1212 8.73836 12.2162C8.72184 12.247 8.69706 12.2732 8.66777 12.2906L8.4042 12.4442C8.03624 12.646 7.89357 13.1242 8.08505 13.5121C8.27654 13.9 8.7301 14.0505 9.09805 13.8486C9.10931 13.8422 9.11983 13.8359 9.13034 13.8296L10.2868 13.1535C10.4017 13.0854 10.5413 13.0854 10.6562 13.1535L12.0649 14.014C12.1813 14.0845 12.2527 14.2151 12.2527 14.3568V16.6432C12.2527 16.7849 12.1813 16.9155 12.0649 16.986L10.6562 17.8433C10.5413 17.9114 10.4017 17.9114 10.2868 17.8433L9.13034 17.1673C8.76764 16.9551 8.31033 17.0928 8.10908 17.4752C7.90784 17.8576 8.0385 18.3397 8.40119 18.5519L8.66477 18.7055C8.75488 18.7593 8.78642 18.8804 8.73535 18.9754C8.71883 19.0063 8.69405 19.0324 8.66477 19.0498L8.47553 19.1654C8.11509 19.3815 7.98894 19.8645 8.19394 20.2452C8.39894 20.626 8.857 20.7583 9.2182 20.5421C9.2212 20.5405 9.2242 20.539 9.22646 20.5366L9.41569 20.4218C9.5058 20.3672 9.61994 20.3996 9.6725 20.4938C9.68978 20.5247 9.69804 20.5595 9.69729 20.596L9.69203 20.9126C9.68527 21.3496 10.0149 21.7098 10.4294 21.7178H10.443C10.853 21.7178 11.1871 21.3718 11.1939 20.9395L11.2164 19.5462C11.2187 19.4077 11.29 19.2802 11.4041 19.2105L12.7918 18.3658C12.912 18.293 13.0599 18.2954 13.1778 18.3722L15.0791 19.6167C15.1895 19.6887 15.2564 19.8162 15.2564 19.9531V21.5547C15.2564 21.6932 15.1865 21.8223 15.0739 21.8935L13.9407 22.6108C13.5848 22.8356 13.4684 23.3225 13.6817 23.6985C13.8949 24.0738 14.3568 24.1965 14.7134 23.9708L14.9718 23.8078C15.0604 23.7515 15.176 23.7816 15.2293 23.875C15.2474 23.9059 15.2564 23.9415 15.2564 23.9772V24.2083C15.2564 24.6453 15.5928 25 16.0073 25C16.4218 25 16.7582 24.6453 16.7582 24.2083V23.978C16.7582 23.8687 16.8423 23.78 16.9459 23.78C16.9797 23.78 17.0135 23.7895 17.0428 23.8085L17.3011 23.9716C17.6571 24.1965 18.1181 24.0753 18.3314 23.7001C18.5447 23.3248 18.4298 22.8388 18.0738 22.6139L16.9407 21.8967C16.828 21.8254 16.7582 21.6964 16.7582 21.5578V19.9563C16.7582 19.8193 16.825 19.6919 16.9354 19.6198L18.8338 18.3761C18.9517 18.2993 19.0996 18.297 19.2197 18.3698L20.6074 19.2145C20.7216 19.2842 20.7929 19.4116 20.7952 19.5502L20.8177 20.9435C20.8245 21.3757 21.1586 21.7217 21.5686 21.7217H21.5821C21.9966 21.7138 22.3263 21.3536 22.3195 20.9166L22.3143 20.5999C22.3128 20.4907 22.3954 20.4004 22.499 20.3996C22.5328 20.3988 22.5658 20.4083 22.5959 20.4258L22.7851 20.5405C23.1426 20.7614 23.6029 20.6348 23.8124 20.2579C24.0219 19.8811 23.9017 19.3958 23.5443 19.1749C23.5413 19.1733 23.5383 19.1718 23.536 19.1694L23.3468 19.0538C23.2567 19 23.2252 18.8788 23.2762 18.7838C23.2927 18.753 23.3175 18.7268 23.3468 18.7094L23.6104 18.5558C23.9738 18.3453 24.1067 17.8639 23.907 17.4808C23.907 17.48 23.9062 17.48 23.9062 17.4792ZM16.2055 18.2344C16.0839 18.3144 15.9307 18.3144 15.809 18.2344L13.9317 17.0042C13.8214 16.9321 13.7545 16.8055 13.7545 16.6685V14.3315C13.7545 14.1945 13.8214 14.0671 13.9317 13.995L15.809 12.7656C15.9307 12.6856 16.0839 12.6856 16.2055 12.7656L18.0828 13.995C18.1932 14.0671 18.2601 14.1945 18.2601 14.3315V16.6685C18.2601 16.8055 18.1932 16.9329 18.0828 17.005L16.2055 18.2344Z" fill="white"/>
</svg>
