<svg width="32" height="32" viewBox="0 0 32 32" fill="none" xmlns="http://www.w3.org/2000/svg">
<circle cx="16" cy="16" r="16" fill="#260082"/>
<path d="M20.375 9H11.625C10.9805 9 10.4584 9.52208 10.4584 10.1667V21.8333C10.4584 22.4779 10.981 23 11.625 23C11.8496 23 12.0695 22.9353 12.2585 22.8127L15.9207 20.4432C15.9691 20.4117 16.031 20.4117 16.0794 20.4432L19.741 22.8122C20.2817 23.1622 21.0039 23.0076 21.3545 22.4668C21.4764 22.2784 21.5417 22.0579 21.5417 21.8333V10.1667C21.5417 9.52208 21.0196 9 20.375 9ZM18.019 16.8802C18.0639 16.9841 18.0166 17.1048 17.9128 17.1497C17.8539 17.1754 17.7868 17.1719 17.7308 17.1404L16.0712 16.2071C16.0269 16.182 15.9726 16.182 15.9283 16.2071L14.2693 17.1404C14.1707 17.1958 14.0459 17.1608 13.9905 17.0622C13.959 17.0062 13.9555 16.9392 13.9811 16.8802L14.6654 15.3052C14.6905 15.2475 14.6753 15.1804 14.6286 15.1384L13.455 14.0937C13.3704 14.0184 13.3634 13.8889 13.4386 13.8043C13.4771 13.7612 13.5325 13.7361 13.5909 13.7361H14.985C15.0434 13.7361 15.0959 13.7017 15.1192 13.648L15.8122 12.0403C15.8571 11.9365 15.9779 11.8892 16.0817 11.9342C16.1295 11.9546 16.1675 11.9931 16.1879 12.0403L16.8809 13.648C16.9042 13.7017 16.9567 13.7361 17.015 13.7361H18.4092C18.5224 13.7361 18.614 13.8282 18.6134 13.9414C18.6134 13.9997 18.5883 14.0552 18.5451 14.0937L17.3715 15.139C17.3248 15.181 17.3096 15.2481 17.3347 15.3058L18.019 16.8802Z" fill="white"/>
</svg>
