<svg width="32" height="32" viewBox="0 0 32 32" fill="none" xmlns="http://www.w3.org/2000/svg">
<circle cx="16" cy="16" r="16" fill="#260082"/>
<path d="M17.9355 10.2518L20.5815 12.8978C20.6357 12.9527 20.6666 13.0267 20.6666 13.1037V21.5417C20.6666 21.7027 20.536 21.8333 20.375 21.8333H11.625C11.464 21.8333 11.3333 21.7027 11.3333 21.5417V10.4583C11.3333 10.2973 11.464 10.1667 11.625 10.1667H17.7295C17.8065 10.1667 17.8806 10.1976 17.9355 10.2518ZM18.0918 9H11.3333C10.6887 9 10.1666 9.52208 10.1666 10.1667V21.8333C10.1666 22.4779 10.6887 23 11.3333 23H20.6666C21.3112 23 21.8333 22.4779 21.8333 21.8333V12.7415C21.8333 12.5869 21.772 12.4382 21.6624 12.3291L18.5042 9.17092C18.3951 9.06125 18.2464 9 18.0918 9ZM18.3333 15.4167H13.0833C12.7613 15.4167 12.5 15.1553 12.5 14.8333C12.5 14.5113 12.7613 14.25 13.0833 14.25H18.3333C18.6553 14.25 18.9166 14.5113 18.9166 14.8333C18.9166 15.1553 18.6553 15.4167 18.3333 15.4167ZM18.3333 17.75H13.0833C12.7613 17.75 12.5 17.4887 12.5 17.1667C12.5 16.8447 12.7613 16.5833 13.0833 16.5833H18.3333C18.6553 16.5833 18.9166 16.8447 18.9166 17.1667C18.9166 17.4887 18.6553 17.75 18.3333 17.75ZM15.7083 20.0833H13.0833C12.7613 20.0833 12.5 19.822 12.5 19.5C12.5 19.178 12.7613 18.9167 13.0833 18.9167H15.7083C16.0303 18.9167 16.2916 19.178 16.2916 19.5C16.2916 19.822 16.0303 20.0833 15.7083 20.0833Z" fill="white"/>
</svg>
