<svg width="32" height="32" viewBox="0 0 32 32" fill="none" xmlns="http://www.w3.org/2000/svg">
<circle cx="16" cy="16" r="16" fill="#260082"/>
<g clip-path="url(#clip0)">
<path d="M19.3514 11.7501C19.3614 11.7501 19.3694 11.7421 19.37 11.7321V11.5281C19.374 10.6441 18.6614 9.92275 17.7774 9.91675H9.5927C8.70937 9.92075 7.99604 10.6401 8.00004 11.5241C8.00004 11.5254 8.00004 11.5267 8.00004 11.5281V11.7334C8.00004 11.7434 8.00804 11.7514 8.01804 11.7514L19.3514 11.7501ZM19.2174 14.2707C19.3034 14.2634 19.37 14.1914 19.37 14.1047V12.7714C19.3694 12.7614 19.3614 12.7534 19.3514 12.7534H8.01804C8.00937 12.7534 8.00137 12.7594 8.00004 12.7681V16.6387C7.99404 17.5221 8.7047 18.2441 9.5887 18.2501C9.59004 18.2501 9.59137 18.2501 9.5927 18.2501H14.3927C14.4674 18.2501 14.5327 18.2007 14.5534 18.1287C15.1574 15.9994 17.0127 14.4647 19.2174 14.2707ZM10.222 15.4167H12.1107C12.3867 15.4167 12.6107 15.6407 12.6107 15.9167C12.6107 16.1927 12.3867 16.4167 12.1107 16.4167H10.222C9.94604 16.4167 9.72204 16.1927 9.72204 15.9167C9.72204 15.6407 9.94604 15.4167 10.222 15.4167ZM19.7414 24.0834C21.482 24.0841 23.0307 22.9774 23.5947 21.3307C23.714 20.9821 23.528 20.6027 23.18 20.4834C22.832 20.3641 22.452 20.5501 22.3327 20.8981C21.8434 22.3287 20.2874 23.0914 18.8567 22.6021C18.4187 22.4521 18.0254 22.1934 17.7147 21.8507C17.6547 21.7847 17.6567 21.6834 17.72 21.6207L18.874 20.4661C19.004 20.3354 19.0034 20.1247 18.8734 19.9947C18.8107 19.9327 18.726 19.8974 18.638 19.8974H15.6667C15.4827 19.8974 15.3334 20.0467 15.3334 20.2307V23.2021C15.3334 23.3861 15.4827 23.5354 15.6667 23.5354C15.7554 23.5354 15.84 23.5001 15.9027 23.4374L16.5414 22.7987C16.606 22.7327 16.712 22.7314 16.778 22.7961C16.7787 22.7967 16.78 22.7981 16.7807 22.7987C17.5494 23.6161 18.62 24.0807 19.7414 24.0834ZM22.748 16.6867C22.684 16.7527 22.5794 16.7547 22.5134 16.6907C22.512 16.6894 22.5107 16.6881 22.5094 16.6867C20.964 15.0567 18.39 14.9887 16.76 16.5341C16.282 16.9867 15.9214 17.5494 15.7094 18.1721C15.59 18.5207 15.776 18.9001 16.1247 19.0187C16.4734 19.1381 16.8527 18.9521 16.9714 18.6041C17.458 17.1754 19.0114 16.4114 20.44 16.8981C20.8727 17.0454 21.262 17.2994 21.5714 17.6361C21.632 17.7021 21.6307 17.8041 21.5674 17.8674L20.46 18.9754C20.33 19.1061 20.3307 19.3167 20.4607 19.4467C20.5227 19.5087 20.6074 19.5441 20.6954 19.5441H23.6667C23.8507 19.5441 24 19.3947 24 19.2107V16.2394C23.9994 16.0554 23.85 15.9061 23.666 15.9067C23.626 15.9067 23.5867 15.9141 23.5494 15.9281C23.5047 15.9447 23.464 15.9707 23.4307 16.0041L22.748 16.6867Z" fill="white"/>
</g>
<defs>
<clipPath id="clip0">
<rect x="8" y="9" width="16" height="16" fill="white"/>
</clipPath>
</defs>
</svg>
