<svg width="32" height="32" viewBox="0 0 32 32" fill="none" xmlns="http://www.w3.org/2000/svg">
<circle cx="16" cy="16" r="16" fill="#260082"/>
<path d="M14.4954 9.66669C12.1314 10.26 10.2614 12.0654 9.58538 14.4067C9.56272 14.4854 9.48605 14.536 9.40472 14.5254L8.71605 14.4387C8.59138 14.4227 8.46872 14.4794 8.40005 14.5847C8.32938 14.69 8.32472 14.8254 8.38738 14.9354L10.0381 17.83C10.0901 17.9214 10.1827 17.9827 10.2867 17.9954C10.3007 17.996 10.3141 17.996 10.3281 17.9954C10.4181 17.9954 10.5047 17.9587 10.5674 17.894L12.8854 15.4987C13.0134 15.366 13.0101 15.1554 12.8774 15.0274C12.8254 14.9767 12.7574 14.9447 12.6854 14.936L11.4334 14.7814C11.3421 14.7687 11.2787 14.684 11.2914 14.5934C11.2934 14.5814 11.2961 14.57 11.3001 14.5594C11.8721 12.94 13.2167 11.7134 14.8821 11.2927C16.6161 10.8807 18.4361 11.458 19.6154 12.794C19.9207 13.1387 20.4474 13.1707 20.7914 12.8654C21.1361 12.56 21.1681 12.0334 20.8634 11.6894C19.2774 9.89069 16.8287 9.11269 14.4954 9.66669ZM11.1927 19.1334C10.8481 19.438 10.8161 19.964 11.1207 20.3087L11.1214 20.3094C12.7081 22.106 15.1554 22.8827 17.4874 22.3294C19.8541 21.7367 21.7261 19.928 22.4001 17.5827C22.4227 17.504 22.4987 17.454 22.5801 17.4634L23.2854 17.548C23.2987 17.5487 23.3121 17.5487 23.3254 17.548C23.5094 17.548 23.6587 17.3987 23.6587 17.2147C23.6587 17.156 23.6434 17.0987 23.6141 17.048L21.9474 14.162C21.8941 14.072 21.8014 14.012 21.6974 14C21.5934 13.986 21.4887 14.024 21.4167 14.1007L19.1127 16.51C18.9854 16.6427 18.9901 16.854 19.1227 16.9814C19.1747 17.0314 19.2414 17.0627 19.3127 17.0714L20.5447 17.2187C20.5954 17.2247 20.6401 17.2534 20.6667 17.2967C20.6934 17.34 20.6987 17.3927 20.6821 17.4407C20.1114 19.0607 18.7681 20.2867 17.1027 20.7074C15.3687 21.1187 13.5494 20.5414 12.3694 19.2054C12.0654 18.8607 11.5401 18.8274 11.1954 19.1314C11.1941 19.132 11.1934 19.1327 11.1927 19.1334ZM15.9921 14.332C16.9127 14.332 17.6587 15.078 17.6587 15.9987C17.6587 16.9194 16.9127 17.6654 15.9921 17.6654C15.0714 17.6654 14.3254 16.9194 14.3254 15.9987C14.3254 15.078 15.0714 14.332 15.9921 14.332Z" fill="white"/>
</svg>
