<svg width="21" height="21" viewBox="0 0 21 21" fill="none" xmlns="http://www.w3.org/2000/svg">
<path fill-rule="evenodd" clip-rule="evenodd" d="M10.5 21C16.299 21 21 16.299 21 10.5C21 4.70101 16.299 0 10.5 0C4.70101 0 0 4.70101 0 10.5C0 16.299 4.70101 21 10.5 21ZM13.6149 8.23986C13.6149 6.45146 12.1646 5 10.375 5C8.58536 5.00247 7.13513 6.45516 7.13513 8.24357C7.13513 8.75454 7.54983 9.16924 8.06081 9.16924C8.57178 9.16924 8.98648 8.75454 8.98648 8.24357C8.98648 7.59066 9.44315 7.02538 10.0812 6.88714C10.8317 6.72546 11.571 7.20187 11.7327 7.95105C11.8943 8.70147 11.4179 9.44077 10.6687 9.60246C9.95906 9.75674 9.45302 10.3837 9.44932 11.1095V11.7883C9.44932 12.2993 9.86402 12.714 10.375 12.714C10.886 12.714 11.3007 12.2993 11.3007 11.7883V11.5661C11.3007 11.4378 11.3809 11.323 11.5019 11.2773C12.7719 10.8058 13.6149 9.59382 13.6149 8.23986ZM11.6092 15.1824C11.6092 14.5011 11.0563 13.9482 10.375 13.9482C9.6937 13.9482 9.14076 14.5011 9.14076 15.1824C9.14076 15.8637 9.6937 16.4167 10.375 16.4167C11.0563 16.4167 11.6092 15.8637 11.6092 15.1824Z" fill="black"/>
</svg>
