<svg width="18" height="22" viewBox="0 0 18 22" fill="none" xmlns="http://www.w3.org/2000/svg">
<path d="M11.0498 19.25H6.95045C6.83404 19.25 6.73595 19.338 6.72312 19.4535C6.71304 19.5378 6.70845 19.6231 6.70845 19.7083C6.70845 20.9743 7.7342 22 9.00012 22C10.266 22 11.2918 20.9743 11.2918 19.7083C11.2918 19.6231 11.2872 19.5378 11.2771 19.4535C11.2652 19.3371 11.1662 19.2491 11.0498 19.25ZM17.659 17.6697C16.6094 15.5842 16.0621 13.2834 16.0585 10.9487V10.2447C16.1098 7.47175 14.7825 4.85467 12.5146 3.25783C11.8638 2.83892 11.1369 2.55292 10.3751 2.41633V1.375C10.3751 0.616 9.75912 0 9.00012 0C8.24112 0 7.62512 0.616 7.62512 1.375V2.42825C6.67454 2.60792 5.77895 3.00942 5.0117 3.59883C3.02987 5.23142 1.90054 7.678 1.94179 10.2447V10.9487C1.93812 13.2834 1.39087 15.5842 0.341287 17.6697C0.227621 17.8961 0.319287 18.1711 0.545704 18.2847C0.608954 18.3168 0.679537 18.3333 0.750121 18.3333H17.2501C17.5031 18.3333 17.7085 18.128 17.7075 17.8741C17.7075 17.8035 17.691 17.7329 17.659 17.6697Z" fill="black"/>
</svg>
