<svg width="36" height="36" viewBox="0 0 36 36" fill="none" xmlns="http://www.w3.org/2000/svg">
<path d="M9 19.5V20.5005" stroke="#3300AF" stroke-linecap="round" stroke-linejoin="round"/>
<path d="M22.9755 8.99997C18.834 6.25197 13.248 7.38147 10.5 11.5245C9.522 12.999 9 14.73 9 16.5" stroke="#3300AF" stroke-linecap="round" stroke-linejoin="round"/>
<path d="M27 18.2505V16.5C27.003 14.7195 26.475 12.9795 25.485 11.5005" stroke="#3300AF" stroke-linecap="round" stroke-linejoin="round"/>
<path d="M27 24V21.2505" stroke="#3300AF" stroke-linecap="round" stroke-linejoin="round"/>
<path d="M24 19.7505V16.5C24 13.1865 21.3135 10.5 18 10.5C14.6865 10.5 12 13.1865 12 16.5V25.5" stroke="#3300AF" stroke-linecap="round" stroke-linejoin="round"/>
<path d="M24 25.5V22.7505" stroke="#3300AF" stroke-linecap="round" stroke-linejoin="round"/>
<path d="M15 22.0005V27" stroke="#3300AF" stroke-linecap="round" stroke-linejoin="round"/>
<path d="M21 27V16.5C21 14.8425 19.6575 13.5 18 13.5C16.3425 13.5 15 14.8425 15 16.5V19.0005" stroke="#3300AF" stroke-linecap="round" stroke-linejoin="round"/>
<path d="M18 17.001V28.5" stroke="#3300AF" stroke-linecap="round" stroke-linejoin="round"/>
<path d="M9 23.25V24" stroke="#3300AF" stroke-linecap="round" stroke-linejoin="round"/>
<path d="M18 0.75C27.5265 0.75 35.25 8.4735 35.25 18C35.25 27.5265 27.5265 35.25 18 35.25C8.4735 35.25 0.75 27.5265 0.75 18C0.75 8.4735 8.4735 0.75 18 0.75Z" stroke="#3300AF" stroke-linecap="round" stroke-linejoin="round"/>
</svg>
